<svg id="Layer_4" xmlns="http://www.w3.org/2000/svg" xmlns:xlink="http://www.w3.org/1999/xlink" viewBox="0 0 1126 67"><style>.st0{clip-path:url(#XMLID_3_);} .st1{fill:#1661A6;} .st2{clip-path:url(#XMLID_3_);fill:#1C67AC;}</style><g id="XMLID_8_"><defs><path id="XMLID_7_" d="M0 0h1126v67H0z"/></defs><clipPath id="XMLID_3_"><use xlink:href="#XMLID_7_" overflow="visible"/></clipPath><g id="XMLID_1_" class="st0"><path id="XMLID_6_" class="st1" d="M183.8 43.4c-1.5 0-2.9.3-4.2.8-4-11.3-17.7-19.6-34-19.6-9.1 0-17.3 2.6-23.6 6.8-1.2-6.5-8.3-11.5-17-11.5-2 0-4 .3-5.8.8-.9-4.6-5.6-8.2-11.2-8.2-6.1 0-11.1 4.1-11.3 9.3-1.3-.1-2.7-.2-4-.2-12.2 0-22.2 5.7-22.9 13-8.6.8-15.2 6.1-15.2 12.5 0 1.7.5 3.3 1.3 4.8L0 67h117.8c6.4 6.2 16.5 10.3 27.8 10.3s21.4-4 27.8-10.3h3.9l-2.7-1.2c1.1-1.2 2.1-2.6 3-4 1.8 1.2 3.9 1.9 6.2 1.9 5.9 0 10.7-4.5 10.7-10.2s-4.8-10.1-10.7-10.1z"/><path id="XMLID_31_" class="st1" d="M438.8 48.9c0-8.6-10.3-15.6-23-15.6-7.9 0-14.9 2.7-19 6.8-3.2-7.8-13.6-13.5-25.8-13.5-14.5 0-26.3 7.9-26.8 17.8-2-2.3-5.4-3.8-9.3-3.8-4.7 0-8.7 2.2-10.4 5.4-4-3-10.3-5-17.4-5-12.2 0-22.1 5.8-22.1 12.9 0 3.8 2.8 7.3 7.3 9.6L280 67h184.5l-31.3-8c3.5-2.7 5.6-6.2 5.6-10.1z"/><path id="XMLID_32_" class="st1" d="M743.5 44c-1.5 0-2.9.2-4.2.7-.2-11.3-14.3-20.4-31.7-20.4-9.6 0-18.1 2.8-23.9 7.1-.6-6.6-7.2-11.9-15.3-11.9-2 0-3.9.3-5.6.9-2-3.9-7.1-6.7-13.1-6.7-4.7 0-8.9 1.8-11.5 4.5-2.8-3.4-7.6-5.7-13-5.7-6.8 0-12.6 3.5-14.7 8.4-1.2-.2-2.5-.4-3.8-.4-10.2 0-18.4 7.7-18.4 17.3 0 3.5 1.1 6.8 3.1 9.5L550.3 67h189.1l-12.7-5.5c3.3-1.6 6-3.6 8.1-5.9 1.8 2.2 5 3.7 8.8 3.7 5.7 0 10.3-3.4 10.3-7.7-.1-4.2-4.7-7.6-10.4-7.6z"/><ellipse id="XMLID_33_" class="st1" cx="866.2" cy="52.6" rx="18.1" ry="11.4"/><path id="XMLID_34_" class="st1" d="M997.1 55.6c2.2-2.1 3.4-4.6 3.4-7.2 0-7.6-10.2-13.7-22.9-13.7-7.8 0-14.7 2.3-18.8 5.9-3.4-6.8-13.7-11.8-26-11.8-14.1 0-25.7 6.6-27 15-2.2-1.4-5-2.2-8.1-2.2-7.2 0-13 4.5-13 10.1 0 2.7 1.4 5.2 3.7 7l-7.6 8.3h138.8l-22.5-11.4z"/></g><path id="XMLID_78_" class="st2" d="M1126 17c-7.1 0-13.3 3.4-16.1 8.4-.2-4.2-5-7.7-11-7.7-6.1 0-11.1 3.5-11.1 7.9v.6c-2-.7-4.2-1.1-6.5-1.1-9 0-16.3 6-16.3 13.4v.7c-5.7-5.9-14.8-9.6-25-9.6-14.7 0-27.1 7.9-30.5 18.5-.7-.1-1.5-.1-2.3-.1-8.4 0-15.3 5.2-16.4 12-1.1-1-2.6-1.6-4.2-1.6-2.3 0-4.3 1.2-5.4 2.9-1.6-3.9-6.6-6.8-12.6-6.8-7.2 0-13 4.2-13.1 9.4-2.4-2-6.6-3.3-11.4-3.3-4.6 0-8.7 1.2-11.2 3.1-.8-5.4-6.9-9.6-14.3-9.6-4.7 0-8.9 1.7-11.5 4.3-4.3-7.5-14-12.8-25.2-12.8-7.7 0-14.6 2.4-19.6 6.4-.4-3.3-4.8-5.9-10.1-5.9-3.3 0-6.2 1-8.1 2.5-2.6-9.2-14.4-16.2-28.5-16.2-11.4 0-21.3 4.6-26.1 11.2-4.5-3.1-10.5-4.9-17.1-4.9-13.8 0-25.1 8.2-25.6 18.6-2-2.3-5.3-3.8-9.2-3.8-4.9 0-9.1 2.5-10.5 6-4.3-3.4-12-5.7-20.7-5.7-7.9 0-14.9 1.8-19.4 4.7-1-8-10-14.3-20.9-14.3-6.7 0-12.7 2.4-16.6 6.1-1.7-1.5-4.2-2.5-7.1-2.5-4 0-7.4 1.9-8.7 4.5-.9-2.1-3.3-3.5-6.1-3.5-1 0-1.9.2-2.8.5v-.5c0-3.3-4.8-6.1-10.7-6.1-2.9 0-5.5.7-7.5 1.7-.4-3.2-4.1-5.7-8.6-5.7-2.1 0-4 .5-5.4 1.4.2-.9.4-1.9.4-2.9 0-6.3-5-11.4-11.2-11.4-2.1 0-4.1.6-5.7 1.6-1-5.4-7-9.5-14.1-9.5-6 0-11.1 2.9-13.3 6.9-2.2-3.4-6.7-5.8-12-5.8-6 0-11 3.1-12.8 7.3-2.1-1.1-4.5-1.8-7-1.8-7.7 0-13.9 5.8-13.9 12.9v.5c-5.7-5.3-14.7-8.8-24.8-8.8-16 0-29.2 8.6-31.1 19.8-1.2-.3-2.5-.5-3.8-.5-7.6 0-13.9 5.2-15.3 12.1-1.3-.9-3-1.5-4.9-1.5-2.1 0-4 .7-5.4 1.9-2.6-2.7-7.1-4.5-12.2-4.5-6.8 0-12.4 3.2-14.1 7.5-1.4-2.6-5.7-4.5-10.9-4.5-3.2 0-6.1.7-8.2 1.9-2-4.7-8.7-8.2-16.7-8.2-5.1 0-9.7 1.4-12.9 3.7-1.9-6.1-10.5-10.8-20.8-10.8-8.3 0-15.4 3-18.9 7.4-2.2-4.2-7.1-7.2-12.9-7.2-3.4 0-6.6 1-9 2.8-3.1-8.8-14.3-15.3-27.5-15.3-11.3 0-21 4.7-25.6 11.5-4.3-3.4-10.4-5.5-17.2-5.5-12.8 0-23.3 7.6-23.3 16.9-2.5-1.8-6.2-2.9-10.3-2.9-6.6 0-12.1 2.9-13.3 6.8-3.9-3.7-10.4-6.2-17.9-6.2-8.4 0-16.1 3.1-19.1 7.5 0-9.9-10.5-18-23.3-18-6.7 0-12.8 2.2-17 5.7-1.8-1.3-4.3-2.1-7-2.1-3.9 0-7.2 1.6-8.9 4-.2-2.4-2.5-4.3-5.2-4.3-1.6 0-2.9.6-3.9 1.5-.2-4-4.9-7.3-10.7-7.3-3.1 0-5.8.9-7.8 2.4-.9-3-4.7-5.3-9.3-5.3-.7 0-1.3 0-1.9.1.1-.5.2-1.1.2-1.6 0-5.7-5.8-10.4-12.9-10.4-2.3 0-4.5.5-6.3 1.3.1-.5.1-1 .1-1.5C13 20.7 7.5 16.2.8 16.2s-12 5.2-12 10.8c0 5.1 4.6 9.3 10.6 10l-2.2 31.8 86.1 2c3.9 5.6 11.5 9.4 20.3 9.4 9.1 0 16.9-4.1 20.7-10 1.1 7.1 10.4 12.6 21.7 12.6 12 0 21.8-6.3 21.8-14.1v-.4c2.5 1.5 5.8 2.4 9.6 2.4 1.8 0 3.4-.2 5-.6l14.3.2c4 2.3 8.9 3.6 14.4 3.6 5.1 0 9.8-1.2 13.6-3.2l12.8.2c4.6 2.4 10.3 3.8 16.4 3.8 5.7 0 11-1.2 15.4-3.3l43 .6v-.5c2.9 1 6.3 1.5 9.9 1.5 7 0 13.2-2.2 17.1-5.5 2.2 4.5 8.8 7.8 16.5 7.8 6.8 0 12.6-2.5 15.4-6.1 2 1.7 5.5 2.8 9.5 2.8 4.8 0 8.8-1.6 10.5-3.9 1 5 7.1 8.9 14.5 8.9 5.6 0 10.4-2.2 12.9-5.4 1.3.9 2.9 1.4 4.7 1.4 2.6 0 4.8-1.1 6.3-2.7 2.6 4.9 7.8 8.2 13.9 8.2 6.6 0 12.2-3.9 14.5-9.4 5.5 3.4 12.6 5.4 20.4 5.4 9.2 0 17.5-2.9 23.3-7.5l147.1 1.5c3.8 4.3 10.2 7.1 17.5 7.1 7.1 0 13.3-2.6 17.1-6.7 3.1 4.7 12.3 8.2 23.1 8.2 11.5 0 21.2-3.9 23.6-9.1 2 1.5 4.7 2.4 7.6 2.4 3.5 0 6.6-1.3 8.6-3.3l3.7.1c4.4 5.9 12.8 9.9 22.4 9.9 9 0 17-3.5 21.5-8.9l4.2.1c4.9 2.5 10.9 4 17.5 4 5.8 0 11.3-1.2 15.8-3.2l23.1.6c1.8 10.5 13.3 18.7 27.3 18.7 12.8 0 23.6-6.8 26.7-16.1 2.6 1.9 6.2 3.1 10.1 3.1 5.5 0 10.2-2.3 12.7-5.6 1.8 2.8 6.9 4.8 12.8 4.8 6.7 0 12.2-2.5 13.3-5.9 2.3 2.8 6.5 4.6 11.2 4.6 5.9 0 10.8-2.8 12.5-6.7 1 1.8 3.1 3 5.4 3 2.3 0 4.3-1.2 5.3-2.9 2.5 5 8.4 8.5 15.3 8.5 4.3 0 8.3-1.4 11.2-3.7 5.6 4.1 13.2 6.7 21.5 6.7 11.3 0 20.3-4 25.9-10.9l60.7.2-.2-21.3c9.9 0 17.4-6.8 17.4-14.9S1135.9 17 1126 17z"/></g></svg>