<svg id="text_original" data-name="text original" xmlns="http://www.w3.org/2000/svg" xmlns:xlink="http://www.w3.org/1999/xlink" viewBox="0 0 619.7 289.7"><defs><style>.cls-1,.cls-4{fill:none;}.cls-2{fill:#fff;}.cls-3{clip-path:url(#clip-path);}.cls-4{stroke:#fff;stroke-linecap:round;stroke-miterlimit:10;}.cls-5{clip-path:url(#clip-path-2);}</style><clipPath id="clip-path" transform="translate(0 -0.2)"><rect id="_Rectangle_" data-name="&lt;Rectangle&gt;" class="cls-1" x="399.6" width="157.6" height="224.79"/></clipPath><clipPath id="clip-path-2" transform="translate(0 -0.2)"><rect id="_Rectangle_2" data-name="&lt;Rectangle&gt;" class="cls-1" x="228.9" y="112.1" width="330.6" height="112.71"/></clipPath></defs><title>rocket-jump-logo-white</title><g id="_Group_" data-name="&lt;Group&gt;"><path id="_Compound_Path_" data-name="&lt;Compound Path&gt;" class="cls-2" d="M29.6,76.2H19.8v35.8H0V13.9H31.6q14.9,0,23,7.7t8.1,21.9q0,19.5-14.2,27.4l17.2,40.2v0.9H44.4ZM19.8,59.7H31.1q5.9,0,8.9-3.9t3-10.5q0-14.8-11.5-14.8H19.8V59.7Z" transform="translate(0 -0.2)"/><path id="_Compound_Path_2" data-name="&lt;Compound Path&gt;" class="cls-2" d="M145.4,71.8q0,19.7-9.3,30.7t-25.9,10.9q-16.5,0-25.9-10.8T74.7,72.3V55.5Q74.7,35.3,84,24t26-11.4q16.4,0,25.8,11.2T145.4,55V71.8ZM125.5,55.4q0-13.3-3.8-19.7T110,29.2q-7.9,0-11.7,6.2t-3.9,19V71.8q0,12.9,3.8,19t11.9,6.1q7.7,0,11.5-6t3.8-18.5v-17Z" transform="translate(0 -0.2)"/><path id="_Compound_Path_3" data-name="&lt;Compound Path&gt;" class="cls-2" d="M226.1,79.4q-0.7,16.8-9.4,25.4t-24.5,8.6q-16.6,0-25.5-10.9t-8.9-31.2V54.7q0-20.2,9.2-31.2t25.5-10.9q16,0,24.4,9t9.5,25.7H206.4q-0.3-10.4-3.2-14.3T192.4,29q-8,0-11.3,5.6t-3.5,18.3V71.4q0,14.6,3.3,20.1T192.2,97q7.8,0,10.8-3.8t3.4-13.8h19.8Z" transform="translate(0 -0.2)"/><path id="_Compound_Path_4" data-name="&lt;Compound Path&gt;" class="cls-2" d="M266,74.2L258.1,84v28H238.3V13.9h19.8V56.7l6.3-10.6,18.3-32.2h24.3L278.8,57.1l28.6,55H283.9Z" transform="translate(0 -0.2)"/><path id="_Compound_Path_5" data-name="&lt;Compound Path&gt;" class="cls-2" d="M365.4,69.6H334.5v26H371v16.4H314.7V13.9h56.2V30.5H334.5V53.6h30.9v16Z" transform="translate(0 -0.2)"/><path id="_Compound_Path_6" data-name="&lt;Compound Path&gt;" class="cls-2" d="M447.3,30.5H423v81.6H403.2V30.5H379.3V13.9h68V30.5Z" transform="translate(0 -0.2)"/></g><g id="_Group_2" data-name="&lt;Group&gt;"><path id="_Compound_Path_7" data-name="&lt;Compound Path&gt;" class="cls-2" d="M37.6,126.7H57.5v67.9q0,14.3-8,22.9T29,226.1q-13.5,0-21-8T0.6,195.8H20.5q0,13.9,8.6,13.9t8.6-16v-67Z" transform="translate(0 -0.2)"/><path id="_Compound_Path_8" data-name="&lt;Compound Path&gt;" class="cls-2" d="M136.8,126.7v67.9q-0.1,15.3-8.4,23.4t-23.8,8.1q-15.8,0-24.1-8.2t-8.3-23.8V126.7H92.2v67.5q0,8.4,2.7,11.9t9.8,3.6q7.1,0,9.7-3.5t2.7-11.6V126.7h19.8Z" transform="translate(0 -0.2)"/><path id="_Compound_Path_9" data-name="&lt;Compound Path&gt;" class="cls-2" d="M177.7,126.7l18.5,71,18.5-71h25.9v98.1H220.7V198.2l1.8-40.9-19.6,67.5H189.5l-19.6-67.5,1.8,40.9v26.5H151.9V126.7h25.9Z" transform="translate(0 -0.2)"/><path id="_Compound_Path_10" data-name="&lt;Compound Path&gt;" class="cls-2" d="M276.3,190.3v34.5H256.5V126.7h33.4q14.6,0,23.2,9t8.7,23.4q0,14.4-8.6,22.8t-23.7,8.4H276.3Zm0-16.5h13.6q5.7,0,8.8-3.7t3.1-10.8q0-7.3-3.2-11.7a10.2,10.2,0,0,0-8.5-4.4H276.3v30.6Z" transform="translate(0 -0.2)"/></g><g id="helmet"><path id="_Path_" data-name="&lt;Path&gt;" class="cls-2" d="M552.1,9a13.4,13.4,0,0,0-2.7-.8c-1.3-.2-2.5.8-3.6,2.4-0.2-1.5-.8-3.4-1.2-3.3s0.1,0.7-.5.2,0.7,3,.3,2.9c-2-.8-4.5,1.5-5.1,1.9l-1.2.6c-0.3.2-.3-0.3-1.3,0.1a11.2,11.2,0,0,0-3.3,2.2l-2.7,2.7a2.6,2.6,0,0,1-1.6.8,3.5,3.5,0,0,0-1.3.3c-0.5.2-.7,1.8-1.4,2.8a5.5,5.5,0,0,1-2.8,1.8h-1.1a1.7,1.7,0,0,1,.1-0.9s1.4,0.1,1.7-.4-0.9-4-.9-4l0.4-.4h3.3l0.6-.3c-1.6-.9-1.7-1.2-1.9-1.6a3.3,3.3,0,0,1-.2-1.8,8.2,8.2,0,0,0-.8-4.4,10.2,10.2,0,0,0-9.5-5.2,7.9,7.9,0,0,0-7.6,5.4,16.4,16.4,0,0,0-1,5,1.1,1.1,0,0,1-1,1,0.5,0.5,0,0,0-.2.4,0.6,0.6,0,0,0,.2.5,5.1,5.1,0,0,0,1.6,1.1l2,0.7c0.3,0.8.5,1.4,0.7,2l-0.8-.4a6.3,6.3,0,0,0-6.4.6l-0.3.3a13.3,13.3,0,0,1-4.7.4c-2-.2-4.4.1-6.3-0.1a14.9,14.9,0,0,0-5.5-.1c-1.9.4-5.3,1.7-5.3,1.7a18.7,18.7,0,0,1-6.6,1.5,4.2,4.2,0,0,0-3.2,1.5,2.2,2.2,0,0,1-1.5,1.5,17.2,17.2,0,0,0-2.5,1.3,6.6,6.6,0,0,1-1.4,1.2,27.7,27.7,0,0,1-3.9,1.7,38.8,38.8,0,0,0-5.3,3.1c-1,.6-1.6,1.7-0.4,2.3s0.7,0.2,7.2-1.2a10.7,10.7,0,0,1,4.2,0,1.7,1.7,0,0,1,1.2,1.2c0.3,0.7.6,2,2,2.3a0.6,0.6,0,0,0,.7-0.6c-0.1-1.8-.6-4.1-0.6-4.6s-0.2-1.1.5-1.2h1.4c0.3,0,.1.4,1.2,0.5a11.2,11.2,0,0,0,3.9-.4l3.7-1.2a2.6,2.6,0,0,1,1.8,0,3.5,3.5,0,0,0,1.3.4c0.5,0.1,1.5-1.3,2.5-1.8a5.5,5.5,0,0,1,3.3-.3,14,14,0,0,0,3.1,1.1l2.6,0.4a19.4,19.4,0,0,0-1,2.6,26.7,26.7,0,0,0-1.3,7.2c0,1.3-.4,3.2,1.2,3.7a17.8,17.8,0,0,0-.3,1.8c-0.9-.6-2.5-1.4-3.3-0.3a16.7,16.7,0,0,0-2.7,6.1c-0.6,2.3-.1,6.6.1,8.4a1.3,1.3,0,0,0,1.1,1.1H491a24.9,24.9,0,0,0-1.5,4.9,47.2,47.2,0,0,1-3.3,7.8,11.5,11.5,0,0,1-1.4,1.9,0.4,0.4,0,0,1-.2-0.3,5.5,5.5,0,0,0-.6-1.5A60.1,60.1,0,0,0,479,69a32.2,32.2,0,0,0-3.9-3.3,9.2,9.2,0,0,1-2.5-3.8c-0.3-1.2-.4-3.5-0.6-5a0.6,0.6,0,0,0-.6-0.5c-1.5.2-6,.7-7.7,1a75.9,75.9,0,0,0-10.4,2.8,0.6,0.6,0,0,0-.4.6,5.8,5.8,0,0,0,.6,2.2c0.6,1.1,1.7.7,3.4,0.7a12.9,12.9,0,0,1,4.6.8c0.9,0.4,3.4,2,3.5,2.4a0.7,0.7,0,0,0,.3.5l2.6,1.8c1.4,1,3.3,4.2,4.4,5.6a43,43,0,0,1,3.2,5.8c0.5,1.1.7,0.7,0.9,0.7s-0.1.8-.1,1.2a1.5,1.5,0,0,0,.3,1.1l0.6,0.5a10.8,10.8,0,0,1,1.5,1.6l1.9,3.2a2.4,2.4,0,0,0,.9,1.5l0.5,0.7a3.5,3.5,0,0,0,2.1,1.7l-1.1.6a64.1,64.1,0,0,0-6.1,5.6,34.4,34.4,0,0,0-3.4,4.3,9.8,9.8,0,0,1-3.9,2.8c-1.3.4-3.7,0.6-5.3,0.8a0.6,0.6,0,0,0-.5.7c0.2,1.6,1,6.4,1.4,8.1a81,81,0,0,0,3.4,10.9,0.6,0.6,0,0,0,.7.4,6.2,6.2,0,0,0,2.3-.7c1.2-.7.7-1.9,0.6-3.6a13.7,13.7,0,0,1,.7-4.9c0.4-.9,2-3.7,2.4-3.8a0.7,0.7,0,0,0,.6-0.4l1.8-2.8c1-1.5,4.4-3.7,5.8-4.9a45.9,45.9,0,0,1,6-3.6c1.2-.6.7-0.8,0.8-1s0.8,0,1.3.1a1.6,1.6,0,0,0,1.1-.3l0.5-.6a11.5,11.5,0,0,1,1.6-1.7l5-3.2,0.6-.3c1.2-.4,2.8-3.2,3.2-3.9a35.5,35.5,0,0,0,3.2-7.2c1.2-3.7,2.1-6.9,3.9-14.7a22.2,22.2,0,0,0,.7-5.4c0.6-1.1,1.1-2.9,1.3-3.1s2.5-3.3,1.1-4c0.6-.5,0-1.2-0.9-1.7,2-1.6.8-.4,1.7-1.4s4.1-9.8,7.8-16.3c2.8-4.1,7.9-7,9.4-8.3s3.9-3.9,3.9-3.9a18.7,18.7,0,0,1,5.2-4.4,4.8,4.8,0,0,0,1.2-1c-0.5,1.6-.7,2.7-0.7,2.7,3.8,0.5,5.1-6.8,6.2-6.2s1.7,0.6,2.3.1S553.7,9.5,552.1,9Z" transform="translate(0 -0.2)"/></g><g id="_Clip_Group_" data-name="&lt;Clip Group&gt;"><g class="cls-3"><path id="_Path_2" data-name="&lt;Path&gt;" class="cls-2" d="M522.5,92l-2.7-1-3-.9c-37,119.9-88.6,139-88.6,139,1.9,0.6,36.9,28.1,36.9,28.1L495,268S491.5,182.1,522.5,92Z" transform="translate(0 -0.2)"/><polygon id="_Path_3" data-name="&lt;Path&gt;" class="cls-2" points="520.5 87.9 514.8 86 517.1 83.6 521.4 85 525.6 86.4 526.2 89.7 520.5 87.9"/><polygon id="_Path_4" data-name="&lt;Path&gt;" class="cls-2" points="548.6 2.4 542.9 0.5 543.4 3.8 547.7 5.2 551.9 6.6 554.3 4.3 548.6 2.4"/><rect id="_Rectangle_3" data-name="&lt;Rectangle&gt;" class="cls-2" x="530" y="0.3" width="9" height="90" transform="translate(40.9 -164.9) rotate(18.2)"/><line id="_Path_5" data-name="&lt;Path&gt;" class="cls-4" x1="542.9" y1="0.5" x2="554.3" y2="4.3"/><line id="_Path_6" data-name="&lt;Path&gt;" class="cls-4" x1="538.6" y1="13.7" x2="549.9" y2="17.4"/><line id="_Path_7" data-name="&lt;Path&gt;" class="cls-4" x1="514.8" y1="86" x2="526.2" y2="89.7"/><line id="_Path_8" data-name="&lt;Path&gt;" class="cls-4" x1="516.8" y1="80" x2="528.2" y2="83.7"/><rect id="_Rectangle_4" data-name="&lt;Rectangle&gt;" class="cls-2" x="522.3" y="52.2" width="9.7" height="2.87" transform="translate(42.4 -160.5) rotate(18)"/></g></g><g id="_Clip_Group_2" data-name="&lt;Clip Group&gt;"><g class="cls-5"><g id="_Group_3" data-name="&lt;Group&gt;"><path id="_Path_9" data-name="&lt;Path&gt;" class="cls-2" d="M590,176.7a29.5,29.5,0,0,0,1.3-22.5,28,28,0,0,0,3.6-13.9c0-14.7-11-26.6-24.6-26.6S547.9,123.4,546,136c-10.9,5-18.3,15.6-18.3,27.9a29.6,29.6,0,0,0,3,13,43.9,43.9,0,0,0-7.6,11.1,36.5,36.5,0,0,0-17.8,10.6,36.6,36.6,0,0,0-26.9-2.2,36.5,36.5,0,0,0-26-14.5,36.6,36.6,0,0,0-11.4-8c-4.8-17-19.7-29.3-37.4-29.3a37.6,37.6,0,0,0-22.6,7.6h-0.4c-21.1,0-38.2,15.5-39,34.8A36.6,36.6,0,0,0,319,205.2a68.4,68.4,0,0,0-7.2-.4c-14.8,0-28.1,4.7-37.3,12.2l-5.7-.2c-27.6,0-49.9,16.3-49.9,36.5s22.3,36.5,49.9,36.5c14.8,0,28.1-4.7,37.3-12.2l5.7,0.2c19.1,0,35.6-7.8,44-19.3a36.3,36.3,0,0,0,7.3-1.7,38.1,38.1,0,0,0,28.5,13c15.3,0,28.6-9.3,35-22.8a36.5,36.5,0,0,0,33.4,6.2,36.5,36.5,0,0,0,56.1,2.8,36.5,36.5,0,0,0,39.9-5l4.5,0.3c23.1,0,41.8-19.6,41.8-43.7A44.7,44.7,0,0,0,590,176.7Z" transform="translate(0 -0.2)"/></g></g></g><path id="_Compound_Path_11" data-name="&lt;Compound Path&gt;" class="cls-2" d="M562.7,13.9v211h57V13.9h-57Zm22,14h13v4h-8v5h7v4h-7v6h8v4h-13v-23Zm4.7,167.6A8.6,8.6,0,0,0,592,197a11.4,11.4,0,0,1,4.8,3,6.6,6.6,0,0,1,1.5,4.5,5.9,5.9,0,0,1-1.9,4.6,7.5,7.5,0,0,1-5.1,1.7,8.9,8.9,0,0,1-4-.9,7.3,7.3,0,0,1-2.8-2.8,7.2,7.2,0,0,1-1-4.2h4.6c0,2,.3,2.5.8,3.1a3.2,3.2,0,0,0,2.5,1c1.6,0,2.4-.8,2.4-2.5a2.8,2.8,0,0,0-.7-2.1,8.2,8.2,0,0,0-2.6-1.5,12,12,0,0,1-4.9-3,6.1,6.1,0,0,1-1.5-4.1,5.8,5.8,0,0,1,2-4.6,8.5,8.5,0,0,1,8.9-.9,6.7,6.7,0,0,1,2.5,2.7,6.8,6.8,0,0,1,.9,3.9h-4.6c0-2-.2-2.1-0.7-2.7a2.5,2.5,0,0,0-2-.9,2.4,2.4,0,0,0-1.9.7,2.6,2.6,0,0,0-.7,1.9A2.3,2.3,0,0,0,589.4,195.5Zm9.3-35.6h-6v19h-4v-19h-6v-4h16v4Zm0-13h-4.4l-6.6-15.3v15.3h-5v-23h4.9l7.1,14.8V123.9h4v23Zm-2-46v4h-7v6h8v4h-13v-23h13v4h-8v5h7Zm-3.4-18h-4.8l-6.5-23h5.1l3.8,16.5,3.8-16.5h5.1Z" transform="translate(0 -0.2)"/></svg>